<svg t="1688540445919" class="icon" viewBox="0 0 1024 1024" version="1.1" xmlns="http://www.w3.org/2000/svg" p-id="6880" width="36" height="36"><path d="M447.636 1023.852s316.482-78.664 403.112-426.556c0-0.002-392.07 146.642-403.112 426.556z" fill="#8CC153" p-id="6881"></path><path d="M468.958 895.796s-7.608-175.79-255.922-298.502c0 0 29.71 306.5 255.922 298.502z" fill="#8CC153" p-id="6882"></path><path d="M447.636 561.304h42.658v462.546h-42.658z" fill="#A0D468" p-id="6883"></path><path d="M709.854 231.342c21.65-49.046 12.402-108.436-27.774-148.58-40.142-40.176-99.532-49.422-148.564-27.774-31.632-43.266-87.678-64.946-142.552-50.264-54.874 14.714-92.582 61.512-98.33 114.808-53.28 5.748-100.094 43.456-114.792 98.314-14.714 54.89 6.982 110.936 50.25 142.582-21.666 49.016-12.418 108.404 27.758 148.548 40.174 40.174 99.546 49.422 148.58 27.772 31.616 43.27 87.662 64.95 142.566 50.234 54.86-14.682 92.566-61.48 98.314-114.778 53.294-5.748 100.096-43.456 114.778-98.314 14.712-54.886-6.966-110.932-50.234-142.548z" fill="#E9573F" p-id="6884"></path><path d="M585.922 363.396c27.086-10.498 46.268-36.77 46.268-67.542 0-30.74-19.182-57.044-46.268-67.51 4.468-28.678-8.684-58.452-35.332-73.822-26.648-15.402-59.014-11.902-81.618 6.31-22.618-18.212-54.968-21.68-81.616-6.31-26.648 15.37-39.8 45.142-35.348 73.822-27.054 10.466-46.252 36.77-46.252 67.51 0 30.772 19.198 57.076 46.268 67.542-4.468 28.678 8.684 58.452 35.334 73.822 26.648 15.37 58.998 11.902 81.616-6.31 22.602 18.212 54.954 21.68 81.618 6.31 26.646-15.37 39.798-45.142 35.33-73.822z" fill="#FC6E51" p-id="6885"></path><path d="M511.616 295.854c0 23.556-19.088 42.674-42.644 42.674-23.572 0-42.66-19.12-42.66-42.674s19.088-42.644 42.66-42.644c23.556 0 42.644 19.088 42.644 42.644z" fill="#FFCE54" p-id="6886"></path></svg>
